<svg id="Layer_1" data-name="Layer 1" xmlns="http://www.w3.org/2000/svg" viewBox="0 0 262.58 172.42"><defs><style>.cls-1{fill:#fff;}</style></defs><title>excel-pro-icon</title><path class="cls-1" d="M160.91,145.23c-7.86,0-14,5.9-14,13.4s6.18,13.4,14,13.4,14-5.9,14-13.4-6.46-13.4-14-13.4"/><path class="cls-1" d="M68.26,145.23c-7.86,0-14,5.9-14,13.4s6.18,13.4,14,13.4,14-5.9,14-13.4-6.46-13.4-14-13.4"/><path class="cls-1" d="M174.84,98.48l-5-4.79-9-8.62-5-4.79,5-4.79,27-25.77,7.69-7.34a28.64,28.64,0,0,1-7.69,3.49,29.15,29.15,0,0,1-8,1.13,28.09,28.09,0,0,1-25.46-15.7H52.81v-8c0-10.45-8.7-18.76-19.65-18.76H5.23V15.22H33.16a8.09,8.09,0,0,1,8.42,8v93.82c0,10.45,8.71,18.76,19.66,18.76H174.38V125.12H61.24a8.1,8.1,0,0,1-8.43-8v-8H167.93c.22,0,.43,0,.64,0h19.22V86.12l-7.94,7.58Z"/><polygon class="cls-1" points="244.22 5.43 187.78 59.31 165.81 80.29 174.83 88.9 187.78 76.54 253.25 14.04 244.22 5.43"/><path class="cls-1" d="M238.35,81.86a7.76,7.76,0,1,1,8.12-7.75,8,8,0,0,1-8.12,7.75m0-27.7c-11.52,0-20.89,8.94-20.89,19.94S226.83,94,238.35,94s20.89-8.95,20.89-19.94-9.37-19.94-20.89-19.94"/><path class="cls-1" d="M179.77,12.55a8,8,0,0,1,8.12,7.75,8.13,8.13,0,0,1-16.25,0,8,8,0,0,1,8.12-7.75m0,27.7a21.61,21.61,0,0,0,8-1.53A20,20,0,0,0,200.66,20.3c0-11-9.37-19.94-20.89-19.94S158.88,9.31,158.88,20.3a19.2,19.2,0,0,0,3.48,11,21.15,21.15,0,0,0,17.4,8.94"/></svg>