<svg id="Layer_1" data-name="Layer 1" xmlns="http://www.w3.org/2000/svg" viewBox="0 0 262.58 172.42"><defs><style>.cls-1{fill:#fff;}</style></defs><title>excel-pro-icon</title><path class="cls-1" d="M187.85,105.52a7.74,7.74,0,1,0,7.94,7.74,7.85,7.85,0,0,0-7.94-7.74"/><path class="cls-1" d="M187.85,133.17c-11.27,0-20.44-8.93-20.44-19.91s9.17-19.91,20.44-19.91,20.43,8.93,20.43,19.91-9.17,19.91-20.43,19.91M114.1,119.43,190.82,44.7l8.83,8.6L122.93,128Zm16.44-79.79c11.27,0,20.43,8.93,20.43,19.91s-9.17,19.91-20.43,19.91S110.1,70.53,110.1,59.55s9.17-19.91,20.44-19.91m-50.79-1.9H67.26V17.8H79.75Zm0,39.89H67.26V57.69H79.75Zm0,39.89H67.26V97.58H79.75Zm0,39.89H67.26V137.47H79.75ZM0,0V55.76c17.26,0,31.26,13.63,31.26,30.45S17.27,116.66,0,116.66v55.76H262.59V116.66c-17.26,0-31.26-13.63-31.26-30.45s14-30.45,31.26-30.45V0Z"/><path class="cls-1" d="M130.54,67.29a7.74,7.74,0,1,0-7.95-7.74,7.85,7.85,0,0,0,7.95,7.74"/></svg>