<svg id="Layer_1" data-name="Layer 1" xmlns="http://www.w3.org/2000/svg" viewBox="0 0 262.58 172.42"><defs><style>.cls-1{fill:#fff;}</style></defs><title>excel-pro-icon</title><path class="cls-1" d="M102.88,80.08c21.56,0,39.05-17.71,39.05-39.54S124.44,1,102.88,1,63.83,18.7,63.83,40.54s17.49,39.54,39.05,39.54"/><path class="cls-1" d="M126.46,121.82l-8.61-8.61,8.61-8.61,9.86-9.86a41.79,41.79,0,0,0-11.69-1.67H81.13c-23.46,0-42.65,19.43-42.65,43.19v35.94H167.27v-9.56l-7.41-7.41Z"/><polygon class="cls-1" points="232.25 61.8 168.47 125.58 164.84 121.95 145.58 102.69 135.07 113.22 167.27 145.43 168.47 146.62 242.77 72.33 232.25 61.8"/></svg>