<svg id="Layer_1" data-name="Layer 1" xmlns="http://www.w3.org/2000/svg" viewBox="0 0 173.09 60.18"><defs><style>.cls-1{fill:#231f20;}</style></defs><title>excel-pro</title><path class="cls-1" d="M15.71.18h2.88a6.73,6.73,0,0,0,.67.12,19.2,19.2,0,0,1,9.56,3.3,11.88,11.88,0,0,1,5.24,7,26.73,26.73,0,0,1,.63,6c.06,14.28,0,28.56,0,42.85,0,.19,0,.38-.07.78-.14-.3-.21-.41-.24-.52A16,16,0,0,0,27,50.54a19.94,19.94,0,0,0-14.4-2.1,25.19,25.19,0,0,0-9.9,4.41c-.61.44-1.28.94-2.06.55S0,52.21,0,51.52q0-7.15,0-14.31,0-13.52,0-27A6,6,0,0,1,2.48,5.11,23.76,23.76,0,0,1,12.23.74C13.38.5,14.55.37,15.71.18"/><path class="cls-1" d="M51.86.18h3.56a2.39,2.39,0,0,0,.45.13A23.44,23.44,0,0,1,66.85,4a14.81,14.81,0,0,1,2.92,2.52c1.1,1.23,1.09,2.85,1.09,4.41q0,20.32,0,40.65a4.36,4.36,0,0,1-.07.81c-.18,1-.71,1.3-1.62.93a9.06,9.06,0,0,1-1.58-.94c-5.72-3.85-11.94-5.49-18.73-3.87a16.43,16.43,0,0,0-12.39,11c-.05.14-.13.28-.19.42l-.15,0V59.3q0-20.36,0-40.72c0-2,.14-3.92.25-5.87a10.86,10.86,0,0,1,3-6.79A17.1,17.1,0,0,1,48.72.73c1-.22,2.09-.37,3.13-.55"/><path class="cls-1" d="M171.78,27.23l.75-1.48a8.24,8.24,0,0,0-2.18-1,9.14,9.14,0,0,0-2.52-.35,6.48,6.48,0,0,0-3.73,1,3.41,3.41,0,0,0-1.49,3,3.33,3.33,0,0,0,.67,2.16,4.4,4.4,0,0,0,1.62,1.26,20.46,20.46,0,0,0,2.49.9q1.3.41,2,.71a3.42,3.42,0,0,1,1.23.84,2,2,0,0,1,.49,1.38,2.08,2.08,0,0,1-1,1.86,4.49,4.49,0,0,1-2.51.64A7.54,7.54,0,0,1,165,37.7a7.38,7.38,0,0,1-2.33-1.42l-.78,1.39a7,7,0,0,0,2.58,1.57,9.39,9.39,0,0,0,3.19.55,6.7,6.7,0,0,0,3.91-1.09,3.59,3.59,0,0,0,1.57-3.15,3.45,3.45,0,0,0-.7-2.25A4.62,4.62,0,0,0,170.71,32a20.12,20.12,0,0,0-2.55-.91,18.79,18.79,0,0,1-2-.68,3.61,3.61,0,0,1-1.19-.8,1.76,1.76,0,0,1-.48-1.28,1.88,1.88,0,0,1,.88-1.7,4.28,4.28,0,0,1,2.34-.57,7.73,7.73,0,0,1,2.12.3,7.38,7.38,0,0,1,1.94.86m-10.9,12.5-6.38-9.31,5.71-5.89h-2.32l-8.18,8.29V18.22h-1.94V39.73h1.94V35.33l3.42-3.51,5.39,7.92Zm-25-13.57a5.8,5.8,0,0,1,3,.75,5.22,5.22,0,0,1,2,2.12,7.07,7.07,0,0,1,0,6.24,5.22,5.22,0,0,1-2,2.12,6.18,6.18,0,0,1-5.92,0,5.22,5.22,0,0,1-2-2.12,7.06,7.06,0,0,1,0-6.24,5.22,5.22,0,0,1,2-2.12,5.8,5.8,0,0,1,3-.75m0-1.68a8,8,0,0,0-3.94,1,7,7,0,0,0-2.73,2.71,7.86,7.86,0,0,0-1,3.94,8,8,0,0,0,1,4,7,7,0,0,0,2.73,2.73,8.49,8.49,0,0,0,7.89,0,7,7,0,0,0,2.73-2.73,8,8,0,0,0,1-4,7.86,7.86,0,0,0-1-3.94,7,7,0,0,0-2.73-2.71,8,8,0,0,0-3.94-1M118,26.16a5.8,5.8,0,0,1,3,.75A5.22,5.22,0,0,1,123,29a7.07,7.07,0,0,1,0,6.24,5.22,5.22,0,0,1-2,2.12,6.18,6.18,0,0,1-5.92,0,5.22,5.22,0,0,1-2-2.12A7.07,7.07,0,0,1,113,29a5.22,5.22,0,0,1,2-2.12,5.8,5.8,0,0,1,3-.75m0-1.68a8,8,0,0,0-3.94,1,7,7,0,0,0-2.73,2.71,7.86,7.86,0,0,0-1,3.94,8,8,0,0,0,1,4A7,7,0,0,0,114,38.82a8.49,8.49,0,0,0,7.89,0,7,7,0,0,0,2.73-2.73,8,8,0,0,0,1-4,7.86,7.86,0,0,0-1-3.94,7,7,0,0,0-2.73-2.71,8,8,0,0,0-3.94-1M99.8,37.94H93.39V30.16H99.8a6.94,6.94,0,0,1,4,1A3.27,3.27,0,0,1,105.29,34a3.35,3.35,0,0,1-1.44,2.89,6.85,6.85,0,0,1-4,1m0-9.54H93.39V21.26H99.8a5.19,5.19,0,0,1,3.33.9,3.12,3.12,0,0,1,1.19,2.61,3.22,3.22,0,0,1-1.19,2.68,5.24,5.24,0,0,1-3.33.94m.09-9h-8.5v20.3H100a8.85,8.85,0,0,0,5.39-1.45,4.78,4.78,0,0,0,1.94-4.06,4.92,4.92,0,0,0-1.25-3.45,5.48,5.48,0,0,0-3.48-1.65,4.74,4.74,0,0,0,2.8-1.59,4.59,4.59,0,0,0,1-3,4.47,4.47,0,0,0-1.72-3.73,7.57,7.57,0,0,0-4.77-1.35M84.43,18.8a1.34,1.34,0,0,0-1.36,1.36,1.37,1.37,0,0,0,.39,1,1.29,1.29,0,0,0,1,.41,1.26,1.26,0,0,0,.94-.41,1.37,1.37,0,0,0,.39-1,1.35,1.35,0,0,0-.38-1,1.27,1.27,0,0,0-1-.39m-1,20.94h1.94V24.54H83.45Z"/></svg>