<svg id="Layer_1" data-name="Layer 1" xmlns="http://www.w3.org/2000/svg" viewBox="0 0 144.06 44.11"><title>excel-pro</title><path d="M25.68,25.52h3.77c1,0,1.26-.23,1.26-1.27,0-4.18,0-8.36,0-12.54A11.45,11.45,0,0,1,31.14,8,2.64,2.64,0,0,1,34,6a2.48,2.48,0,0,1,2.37,2.32,16.39,16.39,0,0,1,.19,3.28q0,6.42,0,12.84c0,.77.29,1.06,1.05,1.07h3.83c1,0,1.2-.25,1.21-1.21q0-5.54,0-11.07a33.87,33.87,0,0,1,.1-3.82,4.29,4.29,0,0,1,.67-2.1,3,3,0,0,1,3.35-1.12,2.45,2.45,0,0,1,1.67,2.55c0,.65,0,1.29,0,1.94q0,6.83,0,13.66c0,.88.29,1.17,1.14,1.17H53.4c.95,0,1.21-.26,1.21-1.22q0-5.27,0-10.54c0-2.37,0-4.75,0-7.12A6.35,6.35,0,0,0,53,2.16,6.58,6.58,0,0,0,42.53,3.73c-.12.24-.15.52-.41.72C41,1.9,39.34.26,36.45.25s-4.86,1.49-6,4.18c0-.88,0-1.77,0-2.65s-.29-1-1-1q-1.86,0-3.72,0c-.82,0-1.08.27-1.08,1.1q0,11.31,0,22.61c0,.77.28,1.06,1.05,1.06"/><path d="M71.62,13.87c0,.45,0,.9,0,1.35a7.33,7.33,0,0,1-1,4.27A3.85,3.85,0,0,1,68.85,21a2.65,2.65,0,0,1-3.78-2.14c-.48-2.87,1.06-4.83,4.14-5.28a19.81,19.81,0,0,1,2-.16c.31,0,.41.09.39.4m-.4-4c-1.71.23-3.43.34-5.12.69a13.27,13.27,0,0,0-3.25,1,7.94,7.94,0,0,0-4.23,8.84,6,6,0,0,0,4.55,5.14,9.79,9.79,0,0,0,4.55,0,8.72,8.72,0,0,0,4.45-2.72c.25-.26.37-.3.58,0a9.51,9.51,0,0,0,2,2.36c.62.52,1,.54,1.57,0l2.77-2.43c.9-.78,1-1,.22-1.93a6.56,6.56,0,0,1-1.44-4.47c.05-1.43,0-2.87,0-4.3h0c0-1.71,0-3.42,0-5.12A6.28,6.28,0,0,0,73.54.82a12.9,12.9,0,0,0-9.79.31,7.4,7.4,0,0,0-4.42,5.4c-.23,1,0,1.28.91,1.4,1.21.15,2.42.28,3.63.4.69.07.91-.11,1.12-.81a3.37,3.37,0,0,1,3.2-2.68,2.83,2.83,0,0,1,3.32,2.31,13.81,13.81,0,0,1,.1,2.47c0,.33-.22.25-.4.27"/><path d="M13.22,13.91c0,.47,0,.94,0,1.41a7.92,7.92,0,0,1-.79,3.81,4.24,4.24,0,0,1-1.66,1.76A2.69,2.69,0,0,1,6.63,18.7c-.31-2.84,1.14-4.62,4.15-5.07a19.49,19.49,0,0,1,2-.16c.33,0,.44.1.42.43m7.49,6.77a6.16,6.16,0,0,1-1.26-3.94c0-1.57,0-3.14,0-4.71h0c0-1.73,0-3.45,0-5.18A6.25,6.25,0,0,0,15,.78,13,13,0,0,0,6,.86,7.56,7.56,0,0,0,.89,6.64c-.19.85,0,1.16.88,1.27,1.23.15,2.46.29,3.69.41.68.07.93-.13,1.13-.81A3.37,3.37,0,0,1,9.83,4.82a2.84,2.84,0,0,1,3.33,2.83c.05.58,0,1.18.06,1.76,0,.37-.12.44-.45.48-1.71.2-3.43.33-5.12.67A11.58,11.58,0,0,0,3.6,12.07,8,8,0,0,0,.19,20.3a6,6,0,0,0,4.55,5.27,9.79,9.79,0,0,0,4.6,0A8.32,8.32,0,0,0,13.65,23c.41-.43.56-.3.8.11a9.09,9.09,0,0,0,1.85,2.18c.64.55,1,.57,1.62,0,.84-.73,1.66-1.47,2.5-2.19,1.24-1.07,1.26-1.09.29-2.4"/><path d="M144.06,9.63a30.3,30.3,0,0,0-.22-3.7c-.42-3.39-2.41-5.4-5.7-5.65a5.58,5.58,0,0,0-5.67,2.9c-.31.54-.57,1.11-.85,1.67h-.09q0-1.52,0-3c0-.79-.24-1.05-1-1.06q-1.83,0-3.66,0c-.81,0-1.09.29-1.09,1.1q0,11.25,0,22.5c0,.88.29,1.17,1.14,1.17h3.6c1.17,0,1.38-.21,1.38-1.4q0-6.33,0-12.66a8.35,8.35,0,0,1,.82-3.87A2.81,2.81,0,0,1,135.61,6c1.08.14,1.77.87,2.09,2.21a7.18,7.18,0,0,1,.21,1.69q0,7.21,0,14.43c0,.93.26,1.2,1.16,1.2h3.83c.86,0,1.14-.28,1.14-1.17q0-7.36,0-14.73"/><path d="M115.38,18.22a5.33,5.33,0,0,1-.77,1.76,2.71,2.71,0,0,1-4.68-.18,9.34,9.34,0,0,1-1-3.94c-.08-.88-.1-1.76-.12-2.27a22.16,22.16,0,0,1,.45-5.74,5.73,5.73,0,0,1,.51-1.3A2.8,2.8,0,0,1,112.69,5,2.64,2.64,0,0,1,115,6.88a14.85,14.85,0,0,1,.77,4.85,22.84,22.84,0,0,1-.44,6.49m-10.78-14A14.46,14.46,0,0,0,102.31,11a17.57,17.57,0,0,0,1.56,9.73,9.24,9.24,0,0,0,15.7,1.68,14.28,14.28,0,0,0,2.85-9,17.07,17.07,0,0,0-2.06-8.53,9.38,9.38,0,0,0-15.77-.65"/><path d="M88.63,32.32a3.2,3.2,0,0,0-.72.23,73.91,73.91,0,0,1-25.37,5.78,74.15,74.15,0,0,1-23.2-2.62,73.25,73.25,0,0,1-17.53-7.3,2.56,2.56,0,0,0-.63-.29.62.62,0,0,0-.76.28.69.69,0,0,0,.1.82,3.53,3.53,0,0,0,.38.37,54.45,54.45,0,0,0,9,6.64A55.9,55.9,0,0,0,58.33,44a54.74,54.74,0,0,0,12.31-1.41,50.69,50.69,0,0,0,17.14-7.05,12.53,12.53,0,0,0,1.83-1.34,1,1,0,0,0,.29-1.27,1.13,1.13,0,0,0-1.27-.61"/><path d="M97.93,18.58a17.32,17.32,0,0,0-7-1.17l2.27-3.29Q96,10,98.87,5.92a3,3,0,0,0,.74-1.69c0-.86,0-1.73,0-2.59,0-.67-.29-1-1-1H84.24c-.63,0-.92.31-.93.94,0,1,0,1.92,0,2.89s.22,1.14,1.13,1.14h6.85c.14,0,.31-.09.43.11l-.42.63L83.2,18.15a3.49,3.49,0,0,0-.7,2c0,1.3,0,2.59,0,3.89,0,.77.53,1.07,1.21.74a16.54,16.54,0,0,1,15,0c.81.38,1.31.06,1.31-.86,0-.71,0-1.41,0-2.12,0-2,.19-2.15-2.12-3.14"/><path d="M95.65,27.16a13.53,13.53,0,0,0-4.4-.59,15.46,15.46,0,0,0-3.07.27,12.59,12.59,0,0,0-5.3,2.09c-.27.2-.54.46-.42.82s.5.3.8.27c1.65-.18,3.31-.35,5-.43a11.42,11.42,0,0,1,3.8.3,1.33,1.33,0,0,1,1.12,1.44A6.14,6.14,0,0,1,93,32.89a37.77,37.77,0,0,1-2,6.2c-.12.33-.27.65-.38,1a.57.57,0,0,0,.08.66.53.53,0,0,0,.7,0,5.33,5.33,0,0,0,.76-.62,13.87,13.87,0,0,0,3.13-4.83,15.79,15.79,0,0,0,1.35-6.74,1.37,1.37,0,0,0-1.05-1.36"/></svg>