<svg id="Layer_1" data-name="Layer 1" xmlns="http://www.w3.org/2000/svg" viewBox="0 0 116.87 105.72"><defs><style>.cls-1{fill:#fff;}</style></defs><title>excel-pro-icon-</title><path class="cls-1" d="M21.87,3.77a12.39,12.39,0,0,1,3.54,9.15A12.45,12.45,0,0,1,21.87,22a12.1,12.1,0,0,1-9,3.6,12.08,12.08,0,0,1-9-3.6A12.44,12.44,0,0,1,.31,12.92,12.38,12.38,0,0,1,3.85,3.77a12.21,12.21,0,0,1,9-3.54A12.23,12.23,0,0,1,21.87,3.77ZM1.24,33.48H24.88v72.24H1.24Z"/><path class="cls-1" d="M109.73,40q7.14,7.48,7.14,20.16v45.53H93.24V67q0-6.14-3.34-9.68A11.72,11.72,0,0,0,81,53.78a13.71,13.71,0,0,0-9.68,3.87,15.76,15.76,0,0,0-4.47,9.88v38.19H43V33.48H66.8V45.24a25.65,25.65,0,0,1,9.95-9.48,29.47,29.47,0,0,1,14-3.2Q102.58,32.55,109.73,40Z"/></svg>