<svg id="Layer_1" data-name="Layer 1" xmlns="http://www.w3.org/2000/svg" xmlns:xlink="http://www.w3.org/1999/xlink" viewBox="0 0 422.59 550.42"><defs><style>.cls-1{fill:none;}.cls-2{clip-path:url(#clip-path);}.cls-3{fill:#231f20;}</style><clipPath id="clip-path"><rect class="cls-1" x="0.76" y="0.56" width="420.82" height="549.85"/></clipPath></defs><title>excel-pro-map-stand</title><g class="cls-2"><path class="cls-3" d="M421.59,206a216.93,216.93,0,0,0-62.21-153l40.39-40.55A7.29,7.29,0,0,0,389.53,2.23l-45.6,45.72L330.11,61.82A7.29,7.29,0,0,0,340.35,72.1l8.67-8.7A202.58,202.58,0,0,1,407.1,206c0,112.72-91,204.09-203.31,204.09a202.89,202.89,0,0,1-138.53-54.7l10.07-10.11A7.29,7.29,0,1,0,65.09,335L49.93,350.26,2.43,397.94a7.29,7.29,0,0,0,10.24,10.28l42.41-42.57a215.53,215.53,0,0,0,141.55,58.63V535.82H97.54a7.3,7.3,0,0,0,0,14.6H314.45a7.3,7.3,0,0,0,0-14.6H211.05V424.34C328.28,420.2,421.27,323.78,421.59,206"/></g></svg>