<svg id="Layer_1" data-name="Layer 1" xmlns="http://www.w3.org/2000/svg" viewBox="0 0 108.18 48.74"><defs><style>.cls-1{fill:#231f20;}</style></defs><title>excel-pro</title><path class="cls-1" d="M26.15,48.74H0V0H26.15Zm-25-1.19H25V1.19H1.19Z"/><rect class="cls-1" y="40.12" width="26.15" height="1.19"/><rect class="cls-1" y="4.76" width="26.15" height="1.19"/><rect class="cls-1" x="42.8" y="4.76" width="65.38" height="1.19"/><path class="cls-1" d="M13.08,46.46a1.83,1.83,0,1,0-1.83-1.83,1.83,1.83,0,0,0,1.83,1.83"/><path class="cls-1" d="M45.94,3.53a.77.77,0,1,0-.77-.77.77.77,0,0,0,.77.77"/><path class="cls-1" d="M48.32,3.53a.77.77,0,1,0-.77-.77.77.77,0,0,0,.77.77"/><path class="cls-1" d="M50.7,3.53a.77.77,0,1,0-.77-.77.77.77,0,0,0,.77.77"/><path class="cls-1" d="M108.18,48.74H42.8V0h65.38ZM44,47.55h63V1.19H44Z"/><rect class="cls-1" x="16.51" y="27.62" width="52.9" height="1.35"/><polygon class="cls-1" points="64.47 33.8 63.55 32.81 68.42 28.29 63.55 23.77 64.47 22.78 70.4 28.29 64.47 33.8"/></svg>