<svg id="Layer_1" data-name="Layer 1" xmlns="http://www.w3.org/2000/svg" xmlns:xlink="http://www.w3.org/1999/xlink" viewBox="0 0 255 212"><defs><style>.cls-1{fill:none;}.cls-2{clip-path:url(#clip-path);}.cls-3{fill:#f36e3f;}</style><clipPath id="clip-path"><rect class="cls-1" x="17.14" width="220.13" height="211.83"/></clipPath></defs><title>excel-pro</title><g class="cls-2"><path class="cls-3" d="M205.07,177.94a16.95,16.95,0,1,0,17,17,17,17,0,0,0-17-17m-111.85,0a16.95,16.95,0,1,0,17,17,17,17,0,0,0-17-17m144-137.26v67.78a23.58,23.58,0,0,1-23.72,23.72H74.6v10.17a10,10,0,0,0,10.17,10.17H213.55c8.82,0,8.82,13.55,0,13.55H84.76A23.57,23.57,0,0,1,61,142.35V23.74A10,10,0,0,0,50.87,13.57H23.75c-8.82,0-8.82-13.57,0-13.57H50.87A23.58,23.58,0,0,1,74.6,23.74V33.89H230.49a6.6,6.6,0,0,1,6.79,6.79"/></g></svg>