<svg id="Layer_1" data-name="Layer 1" xmlns="http://www.w3.org/2000/svg" viewBox="0 0 154.08 146.47"><defs><style>.cls-1{fill:#231f20;}</style></defs><title>jam-pr-social-media-icons</title><path class="cls-1" d="M142.8,28.93l10.8-19.56L134,13.1A34.06,34.06,0,0,0,107.72.46C88.44.46,72.82,16.93,72.82,37.24a38.57,38.57,0,0,0,2.46,13.59c-16.58-2-30.67-12.65-38-27.63a53,53,0,0,0-13.6,35.69,52.47,52.47,0,0,0,20.5,42C25.52,105.63.49,93.13.49,93.13c15.1,42.21,59.8,63.52,99.84,47.6s60.24-63.05,45.14-105.26c-.8-2.24-1.69-4.42-2.66-6.54"/></svg>